<svg width="615.528" height="81.836" viewBox="0 0 615.528 81.836" xmlns="http://www.w3.org/2000/svg"><g id="svgGroup" stroke-linecap="round" fill-rule="evenodd" font-size="9pt" stroke="#ffffff" stroke-width="0.25mm" fill="#ffffff" style="stroke:#ffffff;stroke-width:0.25mm;fill:#ffffff"><path d="M 117.871 80.811 L 117.871 23.193 L 132.324 23.193 L 132.324 28.076 A 43.856 43.856 0 0 1 137.677 25.263 A 33.386 33.386 0 0 1 142.896 23.462 A 42.16 42.16 0 0 1 151.121 22.214 A 38.105 38.105 0 0 1 152.979 22.168 A 37.614 37.614 0 0 1 161.097 23.016 A 32.077 32.077 0 0 1 165.625 24.365 Q 171.387 26.563 175.488 31.006 Q 178.662 28.565 181.738 26.88 Q 184.814 25.195 187.891 24.146 A 34.974 34.974 0 0 1 194.141 22.632 Q 197.314 22.168 200.684 22.168 A 45.079 45.079 0 0 1 207.834 22.712 A 35.77 35.77 0 0 1 213.525 24.097 A 27.801 27.801 0 0 1 220.362 27.438 A 24.811 24.811 0 0 1 223.364 29.834 A 24.781 24.781 0 0 1 228.845 37.431 A 29.598 29.598 0 0 1 229.663 39.331 A 31.419 31.419 0 0 1 231.429 46.086 A 42.884 42.884 0 0 1 231.885 52.49 L 231.885 80.811 L 217.48 80.811 L 217.48 54.834 A 28.657 28.657 0 0 0 217.145 50.348 A 21.887 21.887 0 0 0 216.138 46.362 A 19.353 19.353 0 0 0 214.226 42.435 A 16.234 16.234 0 0 0 212.378 40.064 A 16.016 16.016 0 0 0 206.616 36.157 Q 203.271 34.815 199.268 34.815 A 25.069 25.069 0 0 0 195.062 35.179 A 27.63 27.63 0 0 0 194.775 35.23 A 22.619 22.619 0 0 0 190.308 36.524 A 20.185 20.185 0 0 0 186.23 38.745 A 15.653 15.653 0 0 0 182.91 41.895 L 182.91 80.811 L 168.506 80.811 L 168.506 54.834 A 28.657 28.657 0 0 0 168.17 50.348 A 21.887 21.887 0 0 0 167.163 46.362 A 19.353 19.353 0 0 0 165.251 42.435 A 16.234 16.234 0 0 0 163.403 40.064 A 15.927 15.927 0 0 0 157.593 36.157 A 19.31 19.31 0 0 0 152.01 34.888 A 23.153 23.153 0 0 0 150.146 34.815 A 24.998 24.998 0 0 0 145.142 35.327 A 28.104 28.104 0 0 0 140.308 36.768 Q 137.988 37.695 135.962 39.014 Q 133.936 40.332 132.324 41.992 L 132.324 80.811 L 117.871 80.811 Z M 0 80.811 L 0 23.193 L 14.453 23.193 L 14.453 28.076 Q 20.215 24.805 25.464 23.486 A 42.968 42.968 0 0 1 33.848 22.214 A 38.886 38.886 0 0 1 35.742 22.168 A 39.543 39.543 0 0 1 43.88 22.979 A 34.032 34.032 0 0 1 47.949 24.097 A 27.294 27.294 0 0 1 56.343 28.686 A 25.891 25.891 0 0 1 57.666 29.834 Q 61.768 33.643 64.087 39.331 Q 66.406 45.02 66.406 52.49 L 66.406 80.811 L 52.002 80.811 L 52.002 54.834 A 28.657 28.657 0 0 0 51.666 50.348 A 21.887 21.887 0 0 0 50.659 46.362 A 18.216 18.216 0 0 0 48.555 42.198 A 15.814 15.814 0 0 0 46.802 40.064 A 16.403 16.403 0 0 0 41.17 36.341 A 19.04 19.04 0 0 0 40.698 36.157 A 21.025 21.025 0 0 0 35.749 34.988 A 26.604 26.604 0 0 0 32.666 34.815 A 24.401 24.401 0 0 0 28.471 35.188 A 27.323 27.323 0 0 0 27.856 35.303 Q 25.391 35.791 23.022 36.694 A 27.613 27.613 0 0 0 18.457 38.941 Q 16.26 40.283 14.453 41.992 L 14.453 80.811 L 0 80.811 Z M 549.121 80.811 L 549.121 23.193 L 563.574 23.193 L 563.574 28.076 Q 569.336 24.805 574.585 23.486 A 42.968 42.968 0 0 1 582.97 22.214 A 38.886 38.886 0 0 1 584.863 22.168 A 39.543 39.543 0 0 1 593.001 22.979 A 34.032 34.032 0 0 1 597.07 24.097 A 27.294 27.294 0 0 1 605.464 28.686 A 25.891 25.891 0 0 1 606.787 29.834 Q 610.889 33.643 613.208 39.331 Q 615.527 45.02 615.527 52.49 L 615.527 80.811 L 601.123 80.811 L 601.123 54.834 A 28.657 28.657 0 0 0 600.787 50.348 A 21.887 21.887 0 0 0 599.78 46.362 A 18.216 18.216 0 0 0 597.676 42.198 A 15.814 15.814 0 0 0 595.923 40.064 A 16.403 16.403 0 0 0 590.291 36.341 A 19.04 19.04 0 0 0 589.819 36.157 A 21.025 21.025 0 0 0 584.87 34.988 A 26.604 26.604 0 0 0 581.787 34.815 A 24.401 24.401 0 0 0 577.592 35.188 A 27.323 27.323 0 0 0 576.978 35.303 Q 574.512 35.791 572.144 36.694 A 27.613 27.613 0 0 0 567.578 38.941 Q 565.381 40.283 563.574 41.992 L 563.574 80.811 L 549.121 80.811 Z M 317.92 57.471 L 263.428 57.471 Q 264.355 60.059 266.431 62.207 A 17.271 17.271 0 0 0 269.413 64.65 A 22.079 22.079 0 0 0 271.631 65.918 Q 274.756 67.481 278.857 68.335 Q 282.959 69.19 287.939 69.19 A 47.481 47.481 0 0 0 297.852 68.14 A 72.917 72.917 0 0 0 306.994 65.579 A 67.437 67.437 0 0 0 307.275 65.479 L 312.158 76.514 A 59.561 59.561 0 0 1 306.421 78.833 A 50.038 50.038 0 0 1 300.366 80.493 A 61.204 61.204 0 0 1 294.737 81.392 A 68.328 68.328 0 0 1 293.774 81.494 A 70.835 70.835 0 0 1 288.419 81.814 A 81.847 81.847 0 0 1 286.523 81.836 A 68.567 68.567 0 0 1 278.479 81.387 Q 274.212 80.883 270.524 79.81 A 40.813 40.813 0 0 1 269.482 79.492 A 42.737 42.737 0 0 1 262.948 76.821 A 32.1 32.1 0 0 1 257.227 73.096 A 26.915 26.915 0 0 1 251.011 65.899 A 25.442 25.442 0 0 1 249.805 63.574 Q 247.314 58.106 247.314 51.807 Q 247.314 45.947 249.707 40.601 A 28.42 28.42 0 0 1 256.592 31.152 A 31.445 31.445 0 0 1 263.634 26.344 A 39.199 39.199 0 0 1 267.603 24.609 A 37.732 37.732 0 0 1 275.912 22.579 A 49.639 49.639 0 0 1 282.422 22.168 A 47.517 47.517 0 0 1 290.728 22.864 A 37.52 37.52 0 0 1 297.29 24.634 A 35.881 35.881 0 0 1 304.441 28.208 A 30.414 30.414 0 0 1 308.521 31.397 A 29.301 29.301 0 0 1 315.601 41.504 A 31.539 31.539 0 0 1 318.066 53.955 A 62.887 62.887 0 0 1 318.06 54.816 A 77.282 77.282 0 0 1 318.042 55.737 A 20.412 20.412 0 0 1 317.999 56.647 A 15.343 15.343 0 0 1 317.92 57.471 Z M 342.285 80.811 L 342.285 34.033 L 328.369 34.033 L 328.369 23.193 L 342.285 23.193 L 342.285 5.274 L 356.738 5.274 L 356.738 23.193 L 370.654 23.193 L 370.654 34.033 L 356.738 34.033 L 356.738 80.811 L 342.285 80.811 Z M 382.544 40.381 A 27.274 27.274 0 0 0 380.029 52.002 A 27.274 27.274 0 0 0 382.544 63.623 A 28.142 28.142 0 0 0 389.722 73.096 A 31.25 31.25 0 0 0 394.176 76.315 A 37.811 37.811 0 0 0 401.001 79.492 A 39.112 39.112 0 0 0 407.621 81.184 A 49.985 49.985 0 0 0 415.869 81.836 A 51.903 51.903 0 0 0 422.066 81.478 A 40.312 40.312 0 0 0 430.737 79.492 A 40.133 40.133 0 0 0 434.682 77.861 A 32.545 32.545 0 0 0 442.017 73.096 A 28.142 28.142 0 0 0 449.194 63.623 A 27.274 27.274 0 0 0 451.709 52.002 A 27.274 27.274 0 0 0 449.194 40.381 A 28.142 28.142 0 0 0 442.017 30.908 A 31.25 31.25 0 0 0 437.563 27.689 A 37.811 37.811 0 0 0 430.737 24.512 A 39.112 39.112 0 0 0 424.117 22.82 A 49.985 49.985 0 0 0 415.869 22.168 A 51.903 51.903 0 0 0 409.672 22.526 A 40.312 40.312 0 0 0 401.001 24.512 A 40.133 40.133 0 0 0 397.057 26.144 A 32.545 32.545 0 0 0 389.722 30.908 A 28.142 28.142 0 0 0 382.544 40.381 Z M 465.356 40.381 A 27.274 27.274 0 0 0 462.842 52.002 A 27.274 27.274 0 0 0 465.356 63.623 A 28.142 28.142 0 0 0 472.534 73.096 A 31.25 31.25 0 0 0 476.988 76.315 A 37.811 37.811 0 0 0 483.813 79.492 A 39.112 39.112 0 0 0 490.433 81.184 A 49.985 49.985 0 0 0 498.682 81.836 A 51.903 51.903 0 0 0 504.879 81.478 A 40.312 40.312 0 0 0 513.55 79.492 A 40.133 40.133 0 0 0 517.494 77.861 A 32.545 32.545 0 0 0 524.829 73.096 A 28.142 28.142 0 0 0 532.007 63.623 A 27.274 27.274 0 0 0 534.521 52.002 A 27.274 27.274 0 0 0 532.007 40.381 A 28.142 28.142 0 0 0 524.829 30.908 A 31.25 31.25 0 0 0 520.375 27.689 A 37.811 37.811 0 0 0 513.55 24.512 A 39.112 39.112 0 0 0 506.93 22.82 A 49.985 49.985 0 0 0 498.682 22.168 A 51.903 51.903 0 0 0 492.484 22.526 A 40.312 40.312 0 0 0 483.813 24.512 A 40.133 40.133 0 0 0 479.869 26.144 A 32.545 32.545 0 0 0 472.534 30.908 A 28.142 28.142 0 0 0 465.356 40.381 Z M 84.521 80.811 L 84.521 23.193 L 98.975 23.193 L 98.975 80.811 L 84.521 80.811 Z M 395.215 52.002 A 15.857 15.857 0 0 0 396.606 58.569 Q 397.998 61.67 400.659 64.038 A 18.55 18.55 0 0 0 404.818 66.806 A 23.131 23.131 0 0 0 407.153 67.798 A 22.699 22.699 0 0 0 411.936 68.942 A 30.007 30.007 0 0 0 415.869 69.19 A 29.306 29.306 0 0 0 420.49 68.842 A 22.261 22.261 0 0 0 424.585 67.798 A 21.783 21.783 0 0 0 428.514 65.931 A 17.793 17.793 0 0 0 431.079 64.038 A 16.09 16.09 0 0 0 435.132 58.569 Q 436.523 55.469 436.523 52.002 Q 436.523 48.535 435.132 45.41 A 16.022 16.022 0 0 0 431.079 39.917 A 18.55 18.55 0 0 0 426.92 37.149 A 23.131 23.131 0 0 0 424.585 36.157 A 22.699 22.699 0 0 0 419.802 35.013 A 30.007 30.007 0 0 0 415.869 34.766 A 29.306 29.306 0 0 0 411.249 35.114 A 22.261 22.261 0 0 0 407.153 36.157 A 21.783 21.783 0 0 0 403.224 38.024 A 17.793 17.793 0 0 0 400.659 39.917 Q 397.998 42.285 396.606 45.41 A 16.025 16.025 0 0 0 395.215 52.002 Z M 478.027 52.002 A 15.857 15.857 0 0 0 479.419 58.569 Q 480.811 61.67 483.472 64.038 A 18.55 18.55 0 0 0 487.631 66.806 A 23.131 23.131 0 0 0 489.966 67.798 A 22.699 22.699 0 0 0 494.749 68.942 A 30.007 30.007 0 0 0 498.682 69.19 A 29.306 29.306 0 0 0 503.302 68.842 A 22.261 22.261 0 0 0 507.397 67.798 A 21.783 21.783 0 0 0 511.326 65.931 A 17.793 17.793 0 0 0 513.892 64.038 A 16.09 16.09 0 0 0 517.944 58.569 Q 519.336 55.469 519.336 52.002 Q 519.336 48.535 517.944 45.41 A 16.022 16.022 0 0 0 513.892 39.917 A 18.55 18.55 0 0 0 509.733 37.149 A 23.131 23.131 0 0 0 507.397 36.157 A 22.699 22.699 0 0 0 502.615 35.013 A 30.007 30.007 0 0 0 498.682 34.766 A 29.306 29.306 0 0 0 494.061 35.114 A 22.261 22.261 0 0 0 489.966 36.157 A 21.783 21.783 0 0 0 486.037 38.024 A 17.793 17.793 0 0 0 483.472 39.917 Q 480.811 42.285 479.419 45.41 A 16.025 16.025 0 0 0 478.027 52.002 Z M 263.428 46.192 L 302.734 46.192 Q 301.953 43.799 300.317 41.724 A 15.547 15.547 0 0 0 297.127 38.706 A 18.149 18.149 0 0 0 296.24 38.11 A 19.205 19.205 0 0 0 292.883 36.445 A 24.106 24.106 0 0 0 290.576 35.693 A 24.769 24.769 0 0 0 286.3 34.938 A 30.92 30.92 0 0 0 283.496 34.815 A 31.426 31.426 0 0 0 279.229 35.092 A 24.689 24.689 0 0 0 276.025 35.742 A 25.399 25.399 0 0 0 272.589 36.947 A 19.993 19.993 0 0 0 270.117 38.233 Q 267.578 39.795 265.894 41.846 A 14.504 14.504 0 0 0 264.005 44.779 A 12.814 12.814 0 0 0 263.428 46.192 Z M 89.582 15.16 A 13.052 13.052 0 0 0 91.748 15.332 A 13.885 13.885 0 0 0 93.519 15.224 A 10.533 10.533 0 0 0 95.679 14.722 Q 97.412 14.111 98.633 13.062 A 7.346 7.346 0 0 0 100.513 10.62 A 6.815 6.815 0 0 0 101.172 7.666 A 6.925 6.925 0 0 0 100.513 4.663 Q 99.854 3.272 98.633 2.246 A 8.394 8.394 0 0 0 97.421 1.402 A 10.398 10.398 0 0 0 95.679 0.61 A 10.331 10.331 0 0 0 93.829 0.153 A 13.565 13.565 0 0 0 91.748 0 A 13.602 13.602 0 0 0 90.187 0.087 A 10.647 10.647 0 0 0 87.866 0.61 A 10.949 10.949 0 0 0 86.735 1.079 A 8.72 8.72 0 0 0 84.912 2.246 Q 83.691 3.272 83.032 4.663 A 6.925 6.925 0 0 0 82.373 7.666 A 6.815 6.815 0 0 0 83.032 10.62 Q 83.691 12.012 84.912 13.062 A 8.207 8.207 0 0 0 86.078 13.896 A 10.002 10.002 0 0 0 87.866 14.722 A 10.303 10.303 0 0 0 89.582 15.16 Z" vector-effect="non-scaling-stroke"/></g></svg>