<svg width="666.4" height="70.002" viewBox="0 0 666.4 70.002" xmlns="http://www.w3.org/2000/svg"><g id="svgGroup" stroke-linecap="round" fill-rule="evenodd" font-size="9pt" stroke="#ffffff" stroke-width="0.25mm" fill="#ffffff" style="stroke:#ffffff;stroke-width:0.25mm;fill:#ffffff"><path d="M 171.4 35.001 L 171.4 70.001 L 161.4 70.001 L 161.4 35.001 Q 161.4 28.101 158.05 22.401 Q 154.7 16.701 149 13.351 Q 143.3 10.001 136.4 10.001 L 131 10.001 L 131 70.001 L 121 70.001 L 121 0.001 L 136.4 0.001 Q 145.9 0.001 153.85 4.701 Q 161.8 9.401 166.4 17.001 Q 171 9.401 178.95 4.701 Q 186.9 0.001 196.4 0.001 L 211.8 0.001 L 211.8 70.001 L 201.8 70.001 L 201.8 10.001 L 196.4 10.001 Q 189.5 10.001 183.85 13.351 Q 178.2 16.701 174.8 22.401 Q 171.4 28.101 171.4 35.001 Z M 10 10.401 L 10 70.001 L 0 70.001 L 0 0.001 L 5 0.001 Q 12.3 0.001 20.85 2.801 A 82.604 82.604 0 0 1 33.166 8.014 A 97.349 97.349 0 0 1 38 10.701 Q 46.6 15.801 54.25 22.851 Q 61.9 29.901 67.4 38.501 L 67.4 0.001 L 77.4 0.001 L 77.4 70.001 L 67.4 70.001 Q 67.4 60.801 63.65 52.351 Q 59.9 43.901 53.7 36.751 Q 47.5 29.601 39.95 24.051 Q 32.4 18.501 24.6 14.951 Q 17.059 11.519 10.453 10.47 A 40.137 40.137 0 0 0 10 10.401 Z M 599 10.401 L 599 70.001 L 589 70.001 L 589 0.001 L 594 0.001 Q 601.3 0.001 609.85 2.801 A 82.604 82.604 0 0 1 622.166 8.014 A 97.349 97.349 0 0 1 627 10.701 Q 635.6 15.801 643.25 22.851 Q 650.9 29.901 656.4 38.501 L 656.4 0.001 L 666.4 0.001 L 666.4 70.001 L 656.4 70.001 Q 656.4 60.801 652.65 52.351 Q 648.9 43.901 642.7 36.751 Q 636.5 29.601 628.95 24.051 Q 621.4 18.501 613.6 14.951 Q 606.059 11.519 599.453 10.47 A 40.137 40.137 0 0 0 599 10.401 Z M 301 60.001 L 301 70.001 L 228.6 70.001 L 228.6 0.001 L 301 0.001 L 301 10.001 L 238.6 10.001 L 238.6 60.001 L 301 60.001 Z M 351.4 10.001 L 351.4 70.001 L 341.4 70.001 L 341.4 10.001 L 306 10.001 L 306 0.001 L 386.8 0.001 L 386.8 10.001 L 351.4 10.001 Z M 447.7 70.001 L 424.4 70.001 A 34.128 34.128 0 0 1 416.63 69.147 A 28.649 28.649 0 0 1 411.2 67.301 Q 405.3 64.601 401.05 59.801 Q 396.8 55.001 394.5 48.651 Q 392.2 42.301 392.2 35.001 A 40.057 40.057 0 0 1 393.83 23.482 A 37.279 37.279 0 0 1 394.5 21.451 Q 396.8 15.101 401.05 10.251 Q 405.3 5.401 411.2 2.701 A 29.866 29.866 0 0 1 420.621 0.192 A 36.693 36.693 0 0 1 424.4 0.001 L 447.7 0.001 A 33.234 33.234 0 0 1 455.992 1.004 A 28.652 28.652 0 0 1 460.8 2.701 Q 466.7 5.401 470.95 10.251 Q 475.2 15.101 477.5 21.451 A 39.182 39.182 0 0 1 479.789 33.993 A 44.529 44.529 0 0 1 479.8 35.001 Q 479.8 42.301 477.5 48.651 Q 475.2 55.001 470.95 59.801 Q 466.7 64.601 460.8 67.301 A 30.004 30.004 0 0 1 450.788 69.872 A 36.278 36.278 0 0 1 447.7 70.001 Z M 544.1 70.001 L 520.8 70.001 A 34.128 34.128 0 0 1 513.03 69.147 A 28.649 28.649 0 0 1 507.6 67.301 Q 501.7 64.601 497.45 59.801 Q 493.2 55.001 490.9 48.651 Q 488.6 42.301 488.6 35.001 A 40.057 40.057 0 0 1 490.23 23.482 A 37.279 37.279 0 0 1 490.9 21.451 Q 493.2 15.101 497.45 10.251 Q 501.7 5.401 507.6 2.701 A 29.866 29.866 0 0 1 517.021 0.192 A 36.693 36.693 0 0 1 520.8 0.001 L 544.1 0.001 A 33.234 33.234 0 0 1 552.392 1.004 A 28.652 28.652 0 0 1 557.2 2.701 Q 563.1 5.401 567.35 10.251 Q 571.6 15.101 573.9 21.451 A 39.182 39.182 0 0 1 576.189 33.993 A 44.529 44.529 0 0 1 576.2 35.001 Q 576.2 42.301 573.9 48.651 Q 571.6 55.001 567.35 59.801 Q 563.1 64.601 557.2 67.301 A 30.004 30.004 0 0 1 547.188 69.872 A 36.278 36.278 0 0 1 544.1 70.001 Z M 447.7 10.001 L 424.4 10.001 A 23.77 23.77 0 0 0 418.407 10.725 A 18.795 18.795 0 0 0 412.55 13.351 A 22.061 22.061 0 0 0 404.985 22.224 A 26.07 26.07 0 0 0 404.9 22.401 A 28.327 28.327 0 0 0 402.28 32.665 A 33.776 33.776 0 0 0 402.2 35.001 A 30.529 30.529 0 0 0 403.228 43.042 A 26.654 26.654 0 0 0 404.9 47.551 Q 407.6 53.201 412.55 56.601 Q 417.5 60.001 424.4 60.001 L 447.7 60.001 A 23.408 23.408 0 0 0 453.74 59.254 A 18.653 18.653 0 0 0 459.55 56.601 Q 464.5 53.201 467.15 47.551 Q 469.8 41.901 469.8 35.001 A 31.246 31.246 0 0 0 468.765 26.845 A 27.454 27.454 0 0 0 467.15 22.401 A 22.049 22.049 0 0 0 461.475 14.817 A 21.543 21.543 0 0 0 459.55 13.351 A 19.349 19.349 0 0 0 451.427 10.266 A 25.385 25.385 0 0 0 447.7 10.001 Z M 544.1 10.001 L 520.8 10.001 A 23.77 23.77 0 0 0 514.807 10.725 A 18.795 18.795 0 0 0 508.95 13.351 A 22.061 22.061 0 0 0 501.385 22.224 A 26.07 26.07 0 0 0 501.3 22.401 A 28.327 28.327 0 0 0 498.68 32.665 A 33.776 33.776 0 0 0 498.6 35.001 A 30.529 30.529 0 0 0 499.628 43.042 A 26.654 26.654 0 0 0 501.3 47.551 Q 504 53.201 508.95 56.601 Q 513.9 60.001 520.8 60.001 L 544.1 60.001 A 23.408 23.408 0 0 0 550.14 59.254 A 18.653 18.653 0 0 0 555.95 56.601 Q 560.9 53.201 563.55 47.551 Q 566.2 41.901 566.2 35.001 A 31.246 31.246 0 0 0 565.165 26.845 A 27.454 27.454 0 0 0 563.55 22.401 A 22.049 22.049 0 0 0 557.875 14.817 A 21.543 21.543 0 0 0 555.95 13.351 A 19.349 19.349 0 0 0 547.827 10.266 A 25.385 25.385 0 0 0 544.1 10.001 Z M 104.2 0.001 L 104.2 70.001 L 94.2 70.001 L 94.2 0.001 L 104.2 0.001 Z M 292.5 30.001 L 292.5 40.001 L 243.6 40.001 L 243.6 30.001 L 292.5 30.001 Z" vector-effect="non-scaling-stroke"/></g></svg>